<svg id="Layer_1" data-name="Layer 1" xmlns="http://www.w3.org/2000/svg" viewBox="0 0 20 20"><defs><style>.cls-1{fill:#fff;}</style></defs><title>v</title><path class="cls-1" d="M10.82,14.21a4.45,4.45,0,0,1-3.16-1.31,1.18,1.18,0,1,1,1.66-1.66,2.12,2.12,0,0,0,3,0L16.56,7a2.12,2.12,0,0,0,0-3L16,3.44a2.12,2.12,0,0,0-3,0L11.19,5.25A1.18,1.18,0,0,1,9.52,3.59l1.81-1.81a4.47,4.47,0,0,1,6.32,0l.57.57a4.47,4.47,0,0,1,0,6.32L14,12.91A4.45,4.45,0,0,1,10.82,14.21Z"/><path class="cls-1" d="M6.95,2.61a.59.59,0,0,0-1.18,0v.46h0v.82h0V5.53a.59.59,0,0,0,1.18,0V2.61Z"/><path class="cls-1" d="M2.1,4a.59.59,0,0,0-.83.83l.32.32h0l.29.29.29.29h0L3.33,6.9a.59.59,0,0,0,.83-.83L2.71,4.62Z"/><path class="cls-1" d="M5.51,19.53a4.45,4.45,0,0,1-3.16-1.31l-.57-.57a4.47,4.47,0,0,1,0-6.32L4.36,8.76l2.49.83L3.44,13a2.12,2.12,0,0,0,0,3l.57.57a2.12,2.12,0,0,0,3,0l1.09-1.09a1.18,1.18,0,1,1,1.66,1.66L8.67,18.22A4.46,4.46,0,0,1,5.51,19.53Z"/></svg>