<svg id="Layer_1" data-name="Layer 1" xmlns="http://www.w3.org/2000/svg" viewBox="0 0 24 20"><defs><style>.cls-1{fill:#fff;}</style></defs><title>v</title><path class="cls-1" d="M23.43,1.92a1,1,0,0,0-.32-.8,1.33,1.33,0,0,0-.92-.29,1,1,0,0,0-.94.41,6.22,6.22,0,0,0-.51,1.52L17.38,16.67a9.51,9.51,0,0,0-.24,1.39q0,1.06,1.23,1.06a1.12,1.12,0,0,0,.75-.22,1.31,1.31,0,0,0,.39-.62c.09-.27.18-.63.3-1.09L23.18,3.29a6.63,6.63,0,0,0,.25-1.36m-6.93,0a1,1,0,0,0-.32-.8,1.34,1.34,0,0,0-.92-.29,1,1,0,0,0-.94.41,6.13,6.13,0,0,0-.51,1.52L10.44,16.67a9.69,9.69,0,0,0-.24,1.39q0,1.06,1.23,1.06a1.12,1.12,0,0,0,.75-.22,1.31,1.31,0,0,0,.39-.62c.09-.27.18-.63.3-1.09L16.25,3.29a6.63,6.63,0,0,0,.25-1.36M1.1,8.8a1.71,1.71,0,0,0,1.27.54,1.77,1.77,0,0,0,1.25-.57A1.71,1.71,0,0,0,4.2,7.53a1.68,1.68,0,0,0-.53-1.32A1.83,1.83,0,0,0,2.4,5.73a1.9,1.9,0,0,0-1.3.47A1.67,1.67,0,0,0,.57,7.53,1.75,1.75,0,0,0,1.1,8.8m2.56,9.84a1.86,1.86,0,0,0,0-2.62,1.79,1.79,0,0,0-1.3-.52A1.72,1.72,0,0,0,1.09,16a1.74,1.74,0,0,0-.52,1.27,1.72,1.72,0,0,0,.54,1.35,1.89,1.89,0,0,0,1.29.48,1.81,1.81,0,0,0,1.26-.49"/></svg>